<?xml version="1.0" encoding="UTF-8" standalone="no"?> <svg width="512" height="512" viewBox="0 0 512 512" fill="none" xmlns="http://www.w3.org/2000/svg">
<path fill-rule="evenodd" clip-rule="evenodd" d="M128 32C74.9807 32 32 74.9807 32 128V384C32 437.019 74.9807 480 128 480H384C437.019 480 480 437.019 480 384V128C480 74.9807 437.019 32 384 32H128ZM276 128C276 116.954 267.046 108 256 108C244.954 108 236 116.954 236 128V384C236 395.046 244.954 404 256 404C267.046 404 276 395.046 276 384V128Z" fill="black"/>
</svg>
